<svg id="Capa_1" enable-background="new 0 0 512 512" height="512" viewBox="0 0 512 512" width="512" xmlns="http://www.w3.org/2000/svg"><g><path d="m55.59 415.29c-34.8-43.72-55.59-99.08-55.59-159.29 0-141.38 114.62-256 256-256s256 114.62 256 256c0 63.47-23.1 121.54-61.35 166.27" fill="#524798"/><path d="m29.811 240.732c.332-3.926 1.297-7.866 2.95-11.68 5.179-11.941 15.853-19.803 27.785-21.889-3.642-11.541-1.593-24.637 6.604-34.734 8.197-10.088 20.585-14.773 32.62-13.59-.4-12.09 5.086-24.143 15.686-31.66 10.609-7.526 23.808-8.718 35.088-4.331 2.878-11.764 11.419-21.899 23.677-26.276 12.258-4.378 25.298-1.947 34.976 5.337 5.952-10.535 16.915-17.977 29.891-18.881 12.956-.894 24.823 4.946 32.172 14.54 8.56-8.551 21.106-12.78 33.849-10.171 12.761 2.617 22.644 11.466 27.143 22.718 10.563-5.933 23.817-6.604 35.386-.624 11.56 5.971 18.666 17.157 19.952 29.192 11.755-2.85 24.674.074 34.194 8.933 9.52 8.858 13.357 21.526 11.364 33.458 12.09.41 23.752 6.697 30.542 17.791 6.79 11.103 7.079 24.358 1.938 35.321 7.174 2.281 13.578 6.704 18.245 12.736" fill="#ffd064"/><g><path d="m224.823 229.428c-2.356.823-4.885 1.269-7.515 1.269-12.593 0-22.799-10.196-22.799-22.789s10.206-22.799 22.799-22.799c2.63 0 5.159.447 7.515 1.269-8.896 3.108-15.284 11.567-15.284 21.53s6.387 18.422 15.284 21.52z" fill="#ffc250"/></g><path d="m483.05 245.909-379.41-5.17c.33-3.93 1.29-7.87 2.95-11.68 2.59-5.97 6.55-10.92 11.35-14.64 4.81-3.72 10.46-6.21 16.43-7.25-1.15-3.65-1.73-7.45-1.73-11.26 0-8.26 2.73-16.57 8.33-23.48 7.37-9.06 18.13-13.77 28.97-13.77 1.22 0 2.44.06 3.65.18-.01-.41-.02-.82-.02-1.23 0-11.67 5.47-23.17 15.71-30.43 6.54-4.64 14.07-6.87 21.53-6.87 4.63 0 9.24.86 13.56 2.54 1.44-5.88 4.29-11.36 8.32-15.91s9.23-8.17 15.36-10.36c4.14-1.48 8.37-2.18 12.53-2.18 3.05 0 6.06.38 8.97 1.11-6.86-7.75-16.88-12.57-27.87-12.57-.86 0-1.72.03-2.59.09-6.49.46-12.47 2.54-17.58 5.83s-9.33 7.79-12.31 13.05c-6.41-4.82-14.29-7.51-22.44-7.51-4.16 0-8.4.7-12.54 2.18-6.13 2.19-11.33 5.81-15.36 10.36-4.02 4.55-6.88 10.03-8.32 15.91-4.32-1.68-8.93-2.54-13.56-2.54-7.45 0-14.98 2.23-21.52 6.87-10.24 7.26-15.71 18.76-15.71 30.43 0 .41.01.82.02 1.23-1.21-.12-2.43-.18-3.65-.18-10.84 0-21.6 4.71-28.97 13.77-5.61 6.91-8.34 15.21-8.34 23.47 0 3.82.59 7.62 1.74 11.27-5.97 1.04-11.62 3.53-16.43 7.25s-8.77 8.67-11.36 14.64c-1.65 3.81-2.62 7.75-2.95 11.68l454.06 6.19c-.27-.35-.54-.69-.82-1.02z" fill="#ffc250"/><path d="m450.65 246.55v175.72c-16.274 19.036-35.292 35.657-56.441 49.249-8.737 5.615-17.837-10.807-27.258-6.269s-19.162 30.036-29.181 33.411c-17.051 5.744-34.905 9.741-53.35 11.779-9.332 1.031-22.785-29.672-32.392-29.672-10.528 0-16.936 30.596-27.13 29.362-19.58-2.372-38.478-6.954-56.438-13.491-14.968-5.448-26.62-32.685-40.137-40.7-4.64-2.75-11.854 14.792-16.294 11.762-21.35-14.54-40.39-32.23-56.44-52.41v-168.741z" fill="#f6f9f9"/><path d="m132.23 246.55v233.6c-6.94-3.84-13.68-8-20.2-12.45-21.35-14.54-40.39-32.23-56.44-52.41v-168.74z" fill="#dddaec"/><path d="m55.59 246.548h395.06v41.03h-395.06z" fill="#dddaec"/><path d="m168.46 246.55v250.09c-20.11-7.32-39.04-17.08-56.43-28.94v-221.15z" fill="#dd5ca2"/><path d="m125.66 246.55v229.82c-4.64-2.75-9.19-5.64-13.63-8.67v-221.15z" fill="#c14098"/><path d="m281.34 246.55v264.21c-8.34.82-16.79 1.24-25.34 1.24-10.53 0-20.91-.64-31.1-1.88v-263.57z" fill="#dd5ca2"/><path d="m394.21 246.55v224.97c-17.48 11.23-36.4 20.39-56.44 27.14v-252.11z" fill="#dd5ca2"/><g fill="#c14098"><path d="m112.03 246.548h56.43v41.03h-56.43z"/><path d="m224.9 246.548h56.44v41.03h-56.44z"/><path d="m337.77 246.548h56.44v41.03h-56.44z"/></g><path d="m472.607 267.627h-438.976c-10.411 0-18.851-8.44-18.851-18.851v-12.957c0-10.411 8.44-18.851 18.851-18.851h438.976c10.411 0 18.851 8.44 18.851 18.851v12.957c.001 10.411-8.439 18.851-18.851 18.851z" fill="#dd5ca2"/><path d="m104.46 267.628h-70.83c-10.41 0-18.85-8.44-18.85-18.85v-12.96c0-10.41 8.44-18.85 18.85-18.85h70.83c-10.41 0-18.85 8.44-18.85 18.85v12.96c0 10.41 8.44 18.85 18.85 18.85z" fill="#c14098"/><path d="m470.19 50.017c0-13.047-10.577-23.624-23.624-23.624-6.915 0-13.135 2.972-17.456 7.707-3.5-1.199-7.25-1.859-11.157-1.859-19.009 0-34.418 15.409-34.418 34.418 0 19.008 15.409 34.418 34.418 34.418 16.82 0 30.813-12.068 33.814-28.016 10.544-2.372 18.423-11.785 18.423-23.044z" fill="#ffd064"/><path d="m430.965 98.528c-4.01 1.64-8.41 2.55-13.01 2.55-19.01 0-34.42-15.41-34.42-34.42s15.41-34.42 34.42-34.42c3.75 0 7.37.61 10.75 1.73-11.76 5.73-19.87 17.81-19.87 31.78 0 14.85 9.15 27.56 22.13 32.78z" fill="#ffc250"/><path d="m91.517 21.961c-11.573-6.024-25.839-1.526-31.863 10.048-3.193 6.134-3.429 13.023-1.223 19.042-2.68 2.551-4.997 5.573-6.801 9.038-8.777 16.861-2.223 37.645 14.639 46.421 16.861 8.776 37.644 2.223 46.421-14.638 7.766-14.92 3.522-32.904-9.239-42.93 2.765-10.448-1.946-21.783-11.934-26.981z" fill="#ffd064"/><path d="m92.641 108.76c-8.43 2.7-17.9 2.16-26.37-2.25-16.86-8.78-23.42-29.56-14.64-46.42 1.8-3.47 4.12-6.49 6.8-9.04-2.21-6.02-1.97-12.91 1.22-19.04 5.62-10.79 18.41-15.43 29.49-11.12-4.51 2.13-8.39 5.69-10.87 10.45-3.19 6.14-3.42 13.03-1.22 19.05-2.68 2.55-5 5.57-6.8 9.03-8.78 16.86-2.22 37.65 14.64 46.42 2.51 1.31 5.11 2.28 7.75 2.92z" fill="#ffc250"/><g><path d="m97.104 343.93c-11.126 1.199-19.174 11.19-17.975 22.316.635 5.897 3.741 10.928 8.176 14.177-.701 3.095-.919 6.353-.56 9.685 1.747 16.209 16.303 27.934 32.512 26.187s27.934-16.303 26.187-32.512c-1.545-14.343-13.122-25.166-26.997-26.26-2.991-8.773-11.742-14.627-21.343-13.593z" fill="#ffd064"/><path d="m139.155 405.37c-4.736 5.934-11.754 10.049-19.897 10.925-16.21 1.744-30.769-9.975-32.513-26.186-.364-3.333-.143-6.592.559-9.686-4.439-3.248-7.542-8.281-8.177-14.174-1.115-10.375 5.812-19.766 15.771-21.954-2.208 3.664-3.286 8.05-2.795 12.627.64 5.9 3.75 10.928 8.182 14.181-.702 3.094-.923 6.353-.564 9.679 1.744 16.21 16.307 27.936 32.512 26.186 2.416-.258 4.733-.801 6.922-1.598z" fill="#ffc250"/></g><g><circle cx="184.689" cy="30.563" fill="#ffd064" r="22.447"/><path d="m192.093 51.753c-2.32.81-4.81 1.25-7.4 1.25-12.4 0-22.45-10.04-22.45-22.44s10.05-22.45 22.45-22.45c2.59 0 5.08.44 7.4 1.25-8.76 3.06-15.05 11.39-15.05 21.2s6.29 18.14 15.05 21.19z" fill="#ffc250"/></g><g><circle cx="455.628" cy="80.915" fill="#ffd064" r="16.323"/><path d="m461.011 96.324c-1.687.589-3.498.909-5.381.909-9.017 0-16.325-7.301-16.325-16.318s7.308-16.325 16.325-16.325c1.883 0 3.694.32 5.381.909-6.37 2.225-10.944 8.283-10.944 15.416s4.574 13.191 10.944 15.409z" fill="#ffc250"/></g><g><path d="m328.132 195.73c-2.356.823-4.885 1.269-7.515 1.269-12.593 0-22.799-10.196-22.799-22.789s10.206-22.799 22.799-22.799c2.63 0 5.159.447 7.515 1.269-8.896 3.108-15.284 11.567-15.284 21.53s6.388 18.423 15.284 21.52z" fill="#ffc250"/></g><g><path d="m305.963 176.665c-2.356.823-4.885 1.269-7.515 1.269-12.593 0-22.799-10.196-22.799-22.789s10.206-22.8 22.799-22.8c2.63 0 5.159.447 7.515 1.269-8.896 3.108-15.284 11.567-15.284 21.53 0 9.964 6.387 18.423 15.284 21.521z" fill="#ffc250"/></g><g><circle cx="449.559" cy="328.686" fill="#ffd064" r="17.958"/><path d="m455.482 345.638c-1.856.648-3.848 1-5.92 1-9.92 0-17.96-8.032-17.96-17.952s8.04-17.96 17.96-17.96c2.072 0 4.064.352 5.92 1-7.008 2.448-12.04 9.112-12.04 16.96s5.031 14.512 12.04 16.952z" fill="#ffc250"/></g></g></svg>